<svg xmlns="http://www.w3.org/2000/svg" width="1200" height="630" viewBox="0 0 1200 630">
  <defs>
    <radialGradient id="glow" cx="50%" cy="45%" r="40%">
      <stop offset="0%" stop-color="rgba(14,116,144,0.08)"/>
      <stop offset="100%" stop-color="rgba(14,116,144,0)"/>
    </radialGradient>
    <radialGradient id="petal" cx="50%" cy="30%" r="60%">
      <stop offset="0%" stop-color="rgba(14,116,144,0.30)"/>
      <stop offset="50%" stop-color="rgba(14,116,144,0.15)"/>
      <stop offset="100%" stop-color="rgba(14,116,144,0.03)"/>
    </radialGradient>
    <linearGradient id="stem" x1="0" y1="0" x2="0" y2="1">
      <stop offset="0%" stop-color="rgba(14,116,144,0.20)"/>
      <stop offset="100%" stop-color="rgba(14,116,144,0.05)"/>
    </linearGradient>
  </defs>
  <rect width="1200" height="630" fill="#FFFFFF"/>
  <rect x="24" y="24" width="1152" height="582" rx="12" fill="none" stroke="rgba(14,116,144,0.12)" stroke-width="1"/>
  <circle cx="600" cy="240" r="160" fill="url(#glow)"/>
  <g transform="translate(600,230)">
    <ellipse rx="18" ry="52" fill="url(#petal)" transform="rotate(0) translate(0,-30)" opacity="0.75"/>
    <ellipse rx="18" ry="52" fill="url(#petal)" transform="rotate(51.4) translate(0,-30)" opacity="0.8"/>
    <ellipse rx="18" ry="52" fill="url(#petal)" transform="rotate(102.8) translate(0,-30)" opacity="0.75"/>
    <ellipse rx="18" ry="52" fill="url(#petal)" transform="rotate(154.3) translate(0,-30)" opacity="0.8"/>
    <ellipse rx="18" ry="52" fill="url(#petal)" transform="rotate(205.7) translate(0,-30)" opacity="0.75"/>
    <ellipse rx="18" ry="52" fill="url(#petal)" transform="rotate(257.1) translate(0,-30)" opacity="0.8"/>
    <ellipse rx="18" ry="52" fill="url(#petal)" transform="rotate(308.6) translate(0,-30)" opacity="0.75"/>
    <circle r="12" fill="rgba(14,116,144,0.20)"/>
    <circle r="6" fill="rgba(14,116,144,0.35)"/>
  </g>
  <path d="M600 280 Q600 340 600 390" stroke="url(#stem)" stroke-width="1.5" fill="none"/>
  <ellipse cx="588" cy="340" rx="14" ry="6" fill="rgba(14,116,144,0.08)" transform="rotate(-25 588 340)"/>
  <ellipse cx="615" cy="365" rx="12" ry="5" fill="rgba(14,116,144,0.06)" transform="rotate(20 615 365)"/>
  <text x="600" y="460" text-anchor="middle" font-family="serif" font-size="44" font-weight="600" fill="#164E63" letter-spacing="8">葬送のフリーレン</text>
  <text x="600" y="510" text-anchor="middle" font-family="serif" font-size="26" fill="#0E7490" letter-spacing="12">キャラクター診断</text>
  <line x1="480" y1="540" x2="560" y2="540" stroke="#0E7490" stroke-width="0.5" opacity="0.25"/>
  <circle cx="576" cy="540" r="2" fill="#0E7490" opacity="0.2"/>
  <circle cx="600" cy="540" r="3" fill="#0E7490" opacity="0.35"/>
  <circle cx="624" cy="540" r="2" fill="#0E7490" opacity="0.2"/>
  <line x1="640" y1="540" x2="720" y2="540" stroke="#0E7490" stroke-width="0.5" opacity="0.25"/>
  <text x="600" y="580" text-anchor="middle" font-family="serif" font-size="13" fill="#94A3B8" letter-spacing="4">13 QUESTIONS · 9 CHARACTERS</text>
</svg>
